<svg width="41" height="29" viewBox="0 0 41 29" fill="none" xmlns="http://www.w3.org/2000/svg">
<path d="M23.5883 10.353C23.5883 10.0689 23.7011 9.79653 23.902 9.59568C24.1028 9.39482 24.3752 9.28199 24.6593 9.28199H38.9393C39.2233 9.28199 39.4957 9.39482 39.6966 9.59568C39.8974 9.79653 40.0103 10.0689 40.0103 10.353C40.0103 10.637 39.8974 10.9094 39.6966 11.1103C39.4957 11.3111 39.2233 11.424 38.9393 11.424H24.6593C24.3752 11.424 24.1028 11.3111 23.902 11.1103C23.7011 10.9094 23.5883 10.637 23.5883 10.353ZM38.9393 14.994H24.6593C24.3752 14.994 24.1028 15.1068 23.902 15.3077C23.7011 15.5085 23.5883 15.7809 23.5883 16.065C23.5883 16.349 23.7011 16.6214 23.902 16.8223C24.1028 17.0231 24.3752 17.136 24.6593 17.136H38.9393C39.2233 17.136 39.4957 17.0231 39.6966 16.8223C39.8974 16.6214 40.0103 16.349 40.0103 16.065C40.0103 15.7809 39.8974 15.5085 39.6966 15.3077C39.4957 15.1068 39.2233 14.994 38.9393 14.994ZM38.9393 20.706H24.6593C24.3752 20.706 24.1028 20.8188 23.902 21.0197C23.7011 21.2205 23.5883 21.4929 23.5883 21.777C23.5883 22.061 23.7011 22.3334 23.902 22.5343C24.1028 22.7351 24.3752 22.848 24.6593 22.848H38.9393C39.2233 22.848 39.4957 22.7351 39.6966 22.5343C39.8974 22.3334 40.0103 22.061 40.0103 21.777C40.0103 21.4929 39.8974 21.2205 39.6966 21.0197C39.4957 20.8188 39.2233 20.706 38.9393 20.706ZM38.9393 26.418H8.95129C8.66725 26.418 8.39484 26.5308 8.19398 26.7316C7.99313 26.9325 7.8803 27.2049 7.8803 27.489C7.8803 27.773 7.99313 28.0454 8.19398 28.2463C8.39484 28.4471 8.66725 28.56 8.95129 28.56H38.9393C39.2233 28.56 39.4957 28.4471 39.6966 28.2463C39.8974 28.0454 40.0103 27.773 40.0103 27.489C40.0103 27.2049 39.8974 26.9325 39.6966 26.7316C39.4957 26.5308 39.2233 26.418 38.9393 26.418ZM10.3614 22.848C8.67316 22.8522 7.01348 22.4121 5.54912 21.5719C4.08476 20.7317 2.86728 19.5209 2.01896 18.0612C1.17065 16.6015 0.721364 14.9443 0.716246 13.256C0.711128 11.5677 1.15035 9.90784 1.9898 8.44304C1.1813 7.87708 0.574265 7.06813 0.256849 6.13367C-0.0605672 5.1992 -0.0718333 4.18788 0.224687 3.24658C0.521208 2.30528 1.11008 1.483 1.90577 0.89918C2.70146 0.315356 3.66255 0.000381891 4.64945 0C4.85092 0.000558304 5.04842 0.0561051 5.22065 0.16065L16.359 7.12214C16.9904 7.04634 17.5691 6.73271 17.9773 6.24514C18.3855 5.75757 18.5924 5.13273 18.556 4.49789C18.5196 3.86305 18.2426 3.26596 17.7813 2.82825C17.3201 2.39054 16.7093 2.14513 16.0734 2.142C15.7894 2.142 15.517 2.02916 15.3161 1.82831C15.1153 1.62746 15.0024 1.35504 15.0024 1.071C15.0024 0.786952 15.1153 0.514539 15.3161 0.313688C15.517 0.112837 15.7894 0 16.0734 0C17.3043 0 18.4848 0.48896 19.3551 1.35932C20.2255 2.22967 20.7144 3.41013 20.7144 4.64099C20.7144 5.87186 20.2255 7.05232 19.3551 7.92267C18.4848 8.79303 17.3043 9.28199 16.0734 9.28199C15.872 9.28143 15.6745 9.22588 15.5022 9.12134L10.058 5.71199C8.17826 5.77151 6.38956 6.53535 5.04667 7.852C3.70377 9.16865 2.90479 10.9419 2.80818 12.8201C2.71157 14.6983 3.32441 16.5442 4.52513 17.9917C5.72585 19.4392 7.42674 20.3825 9.29045 20.6346V12.2272C9.29045 11.9432 9.40328 11.6708 9.60413 11.4699C9.80498 11.2691 10.0774 11.1562 10.3614 11.1562C10.6455 11.1562 10.9179 11.2691 11.1188 11.4699C11.3196 11.6708 11.4324 11.9432 11.4324 12.2272V20.6346C12.9077 20.4235 14.2865 19.7776 15.3929 18.7793C16.4994 17.7809 17.2831 16.4755 17.6442 15.0297C17.6679 14.8833 17.7217 14.7434 17.8022 14.6189C17.8828 14.4944 17.9883 14.388 18.1121 14.3064C18.2359 14.2248 18.3753 14.1698 18.5215 14.1449C18.6676 14.1199 18.8174 14.1256 18.9613 14.1616C19.1051 14.1976 19.2399 14.263 19.3572 14.3538C19.4744 14.4446 19.5715 14.5587 19.6424 14.689C19.7132 14.8192 19.7562 14.9628 19.7687 15.1105C19.7812 15.2583 19.7628 15.407 19.7148 15.5473C19.1989 17.6361 17.9966 19.4911 16.3005 20.815C14.6045 22.1388 12.513 22.8547 10.3614 22.848ZM3.25715 6.71159C4.37969 5.48078 5.79948 4.55884 7.3805 4.03409L4.36385 2.15985C3.85755 2.21968 3.38167 2.43295 3.00005 2.77101C2.61844 3.10908 2.34935 3.55578 2.2289 4.05117C2.10845 4.54656 2.14241 5.06694 2.3262 5.54248C2.51 6.01802 2.83485 6.42597 3.25715 6.71159Z" fill="#773344"/>
</svg>
