<svg width="24" height="24" viewBox="0 0 24 24" fill="none" xmlns="http://www.w3.org/2000/svg">
<path d="M17.2875 0.75L13.05 7.0875H15.15L19.875 0.75H17.2875Z" fill="#428BC1"/>
<path d="M15.15 0.75L10.95 7.0875H13.05L17.2875 0.75H15.15Z" fill="#E8E8E8"/>
<path d="M13.05 0.75L8.85 7.0875H10.95L15.15 0.75H13.05Z" fill="#ED4C5C"/>
<path d="M12 23.25C16.2664 23.25 19.725 19.7914 19.725 15.525C19.725 11.2586 16.2664 7.80002 12 7.80002C7.7336 7.80002 4.275 11.2586 4.275 15.525C4.275 19.7914 7.7336 23.25 12 23.25Z" fill="#FFCE31"/>
<path d="M8.1375 5.66251C7.95 5.66251 7.8 5.81251 7.8 6.00001V9.15001C7.8 9.33751 7.95 9.48751 8.1375 9.48751H15.8625C16.05 9.48751 16.2 9.33751 16.2 9.15001V6.00001C16.2 5.81251 16.05 5.66251 15.8625 5.66251H8.1375ZM15.525 8.13751C15.525 8.32501 15.375 8.47501 15.1875 8.47501H8.85C8.6625 8.47501 8.5125 8.32501 8.5125 8.13751V6.71251C8.5125 6.52501 8.6625 6.37501 8.85 6.37501H15.1875C15.375 6.37501 15.525 6.52501 15.525 6.71251V8.13751Z" fill="#FFCE31"/>
<path opacity="0.5" d="M5.3625 16.425C5.3625 12.225 8.5875 8.81251 12.7125 8.51251C12.525 8.51251 12.3 8.47501 12.1125 8.47501C8.175 8.47501 4.9875 11.6625 4.9875 15.6375C4.9875 16.8 5.2875 17.925 5.775 18.9C5.5125 18.1125 5.3625 17.2875 5.3625 16.425Z" fill="#89664C"/>
<path opacity="0.33" d="M14.9625 21.4875C18.45 19.1625 19.5 14.625 17.475 11.1L17.8125 11.55C19.9875 14.775 19.0875 19.1625 15.825 21.375C14.85 22.05 13.7625 22.425 12.675 22.5375C13.5 22.3125 14.25 21.975 14.9625 21.4875Z" fill="white"/>
<path d="M8.85 7.0875H10.95L6.7125 0.75H4.125L8.85 7.0875Z" fill="#ED4C5C"/>
<path d="M10.95 7.0875H13.05L8.85 0.75H6.7125L10.95 7.0875Z" fill="#E8E8E8"/>
<path opacity="0.5" d="M12.3375 1.79999L11.2875 3.37499L13.7625 7.08749H15.15L15.525 6.56249L12.3375 1.79999Z" fill="#3E4347"/>
<path d="M13.05 7.0875H15.15L10.95 0.75H8.85L13.05 7.0875Z" fill="#428BC1"/>
<path opacity="0.5" d="M10.05 13.2V13.575C10.425 13.575 10.7625 13.5 11.1 13.35V12.825C10.8 13.05 10.4625 13.1625 10.05 13.2ZM12.525 10.7625H12.8625V18.8625H12.525V10.7625ZM13.95 19.2V20.25H10.05V20.625H14.2875V19.2H13.95Z" fill="#89664C"/>
<path opacity="0.33" d="M12.8625 18.8625H13.9125V19.2H12.8625V18.8625ZM11.475 10.7625H12.525V10.425H11.1C11.1 11.2125 10.4625 11.85 9.675 11.85V13.2375C9.7875 13.2375 9.9 13.2375 10.0125 13.2V12.15C10.8375 12.1875 11.475 11.55 11.475 10.7625ZM11.475 19.2V13.2C11.3625 13.275 11.25 13.3125 11.1375 13.3875V18.8625H9.7125V20.25H10.05V19.2H11.475Z" fill="white"/>
</svg>
